<svg width="34" height="30" viewBox="0 0 34 30" fill="none" xmlns="http://www.w3.org/2000/svg">
<g clip-path="url(#clip0_3_40)">
<path d="M21.8838 27.0879C23.0264 28.4063 24.8721 29.1094 26.9814 29.1094C31.1123 29.1094 33.749 26.3848 33.749 22.1661C33.749 18.0352 31.0244 15.0469 27.1572 15.0469C26.3662 15.0469 25.4873 15.2227 24.6084 15.4864C24.0811 8.89454 27.333 3.44532 31.7275 1.77539L31.2881 0.28125C23.7295 3.18164 18.9834 10.5645 18.9834 19.2657C18.9834 22.0782 20.0381 25.1543 21.8838 27.0879ZM-0.000976562 19.2657C-0.000976562 24.0997 2.72363 29.1094 7.99707 29.1094C12.04 29.1094 14.6768 26.3848 14.6768 22.1661C14.6768 18.0352 11.9521 15.0469 8.17285 15.0469C7.38184 15.0469 6.50293 15.2227 5.62402 15.4864C5.09668 8.89454 8.34863 3.44532 12.7432 1.77539L12.2158 0.28125C4.74512 3.18164 -0.000976562 10.5645 -0.000976562 19.2657Z" fill="#EA552B"/>
</g>
<defs>
<clipPath id="clip0_3_40">
<rect width="33.75" height="28.8281" fill="white" transform="translate(-0.000976562 0.28125)"/>
</clipPath>
</defs>
</svg>
