<svg width="247" height="112" viewBox="0 0 247 112" fill="none" xmlns="http://www.w3.org/2000/svg">
<g clip-path="url(#clip0_3_27)">
<g clip-path="url(#clip1_3_27)">
<path d="M52.5744 61.4011C51.9927 56.9878 51.1201 52.6468 50.9019 48.3059C50.6838 44.8331 49.3749 41.7944 48.1387 38.7557C46.8298 35.5723 45.5209 32.3166 44.2847 29.0609C43.9211 28.1927 43.8484 27.1798 43.703 26.1669C43.6303 25.2987 43.7757 24.5029 44.7937 24.2135C45.6663 23.9241 46.2481 24.3582 46.7571 25.0093C46.9752 25.2987 47.1934 25.5158 47.4115 25.8775C47.9206 24.2135 48.3568 22.6941 48.8659 21.1748C49.0113 20.7407 49.2295 20.3066 49.3749 19.8725C50.2475 18.0638 51.0474 17.8467 52.8653 19.0766C53.1561 18.7149 53.3743 18.3532 53.6652 17.9914C54.3196 17.1956 54.9741 16.3274 55.7739 15.6762C57.9554 13.7951 60.0642 14.3739 61.0822 17.1232C61.3004 17.7744 61.5185 18.4255 61.5913 19.149C61.7367 22.26 61.8094 25.3711 61.8821 28.4821C61.8821 28.9162 61.8821 29.4226 61.8821 30.0738C62.3184 29.7844 62.682 29.495 63.0456 29.2779C64.6453 28.3374 66.1724 27.2521 67.7722 26.384C69.3719 25.5881 71.0444 25.8052 72.5715 26.7457C74.4621 27.9033 76.28 29.0609 78.3161 30.3632C78.5342 29.3503 78.8251 28.3374 79.0432 27.3968C79.1887 26.7457 79.2614 26.0222 79.4068 25.3711C79.6977 23.8517 80.134 23.5623 81.661 23.8517C85.0787 24.5752 88.4964 25.2264 91.914 25.9499C107.548 29.495 123.182 33.0401 138.743 36.7299C143.906 37.9599 148.924 39.5516 154.014 40.9262C154.378 40.9986 154.741 41.0709 155.25 41.2156C154.959 40.058 154.741 39.1175 154.523 38.1046C154.159 35.717 154.741 33.5466 156.341 31.6655C158.377 29.2056 160.995 27.6862 163.976 26.6734C164.921 26.3116 165.939 26.0222 167.103 25.5881C166.376 24.937 165.867 24.4305 165.358 23.9964C163.031 21.9706 161.649 19.4384 161.286 16.3997C161.213 15.6762 161.213 14.8804 161.358 14.1569C161.867 11.8417 163.831 10.6841 166.085 11.2629C166.957 11.4799 167.757 11.8417 168.703 12.2034C169.43 11.2629 170.157 10.25 171.611 10.25C172.993 10.25 174.011 11.0458 175.029 11.8417C175.174 11.7693 175.393 11.7693 175.465 11.6246C177.429 9.9606 178.738 9.9606 180.628 11.7693C181.21 12.3481 181.864 13.0716 182.228 13.7951C184.046 16.9062 185.791 20.0172 187.609 23.1282C189.281 26.0222 190.881 28.9885 192.481 31.9549C193.717 34.1254 194.881 36.2958 196.19 38.4663C197.426 40.6368 198.735 42.735 199.971 44.6884C207.824 44.1096 215.459 43.5308 223.095 42.952C230.73 42.3732 238.365 41.9391 246 42.4456C246 42.5903 246.073 42.735 246.073 42.952C245.491 43.0967 244.91 43.3138 244.255 43.3861C239.165 43.9649 234.075 44.616 228.985 45.1225C222.077 45.7736 215.241 46.4248 208.333 47.0036C205.643 47.2206 202.879 47.51 200.189 47.6547C198.226 47.7994 198.153 47.7271 197.28 45.9907C197.062 45.5566 196.771 45.1948 196.553 44.8331C195.68 43.5308 194.735 42.2285 194.081 40.8539C191.39 35.717 186.955 32.389 181.864 29.9291C180.846 29.4226 179.683 29.2056 178.519 28.9885C176.774 28.6268 174.956 28.3374 173.211 28.1203C172.848 28.048 172.411 27.9756 171.975 28.1203C169.503 28.7715 167.03 29.4226 164.631 30.2185C162.376 30.942 160.558 32.4613 159.031 34.1977C157.722 35.6447 157.577 39.1175 158.741 40.7092C159.322 41.505 159.977 41.6497 160.849 41.0709C161.431 40.7092 161.867 40.1304 162.376 39.6963C163.758 38.4663 165.14 37.2364 166.594 36.0788C168.557 34.6318 170.739 34.3424 172.993 35.4276C174.011 35.9341 175.102 36.4405 176.047 37.0917C178.447 38.8281 179.174 42.2285 177.72 44.9054C176.847 46.4971 175.465 47.2206 173.72 47.293C172.193 47.3653 170.739 47.2206 169.212 47.1483C167.903 47.0759 166.521 46.9312 165.212 46.9312C164.631 46.9312 163.903 47.0759 163.394 47.3653C162.158 48.0165 162.013 49.1741 163.104 49.9699C164.558 51.0552 166.012 52.0681 167.685 52.7915C171.757 54.5279 175.902 56.0473 180.046 57.5666C181.137 57.9284 182.301 57.9284 183.464 58.0731C185.937 58.3625 188.409 58.5795 190.881 58.9413C202.152 60.6053 213.205 63.4269 224.331 65.8868C229.639 67.0444 234.947 68.4914 240.183 69.866C241.346 70.1554 242.51 70.5895 243.673 71.0236C244.255 71.2407 244.764 71.6024 245.273 71.8918C245.2 72.0365 245.2 72.1812 245.128 72.2536C243.819 72.1089 242.583 71.9642 241.274 71.7471C233.348 70.3001 225.349 68.9255 217.423 67.4062C207.097 65.3804 196.844 63.2099 186.518 61.1841C179.319 59.7371 172.557 57.2049 165.794 54.5279C164.122 53.8768 162.667 52.8639 160.995 51.9233C160.849 52.3574 160.704 52.7192 160.631 53.1533C158.741 60.3159 156.777 67.4785 154.887 74.5688C154.741 75.1476 154.523 75.7987 154.305 76.3775C153.796 77.4627 153.141 77.6074 152.123 76.9563C151.76 76.7393 151.323 76.5222 150.887 76.3775C144.634 75.1476 138.307 74.2794 132.054 72.6877C116.783 68.9255 101.367 65.8145 85.8786 62.7758C81.9519 61.9799 78.0252 61.2564 74.0985 60.4606C73.0805 60.2436 72.4987 60.5329 71.917 61.2564C67.9176 66.2486 63.9182 71.2407 59.9188 76.1605C50.7565 87.447 41.5942 98.7335 32.3592 110.02C32.0684 110.382 31.7775 110.816 31.4139 111.033C31.0503 111.25 30.3959 111.322 30.1777 111.105C29.8141 110.816 29.596 110.237 29.6687 109.803C29.8141 109.224 30.1777 108.645 30.5413 108.139C31.9229 106.33 33.3773 104.594 34.7589 102.857C42.7577 93.1626 50.7565 83.3954 58.6826 73.7006C63.6273 67.6956 68.572 61.6905 73.3713 55.6132C76.1346 52.1404 78.6069 48.3782 81.2247 44.7607C81.7337 44.0372 82.0973 43.2414 82.3882 42.4456C82.5336 42.0838 82.3882 41.4327 82.17 41.2156C81.8792 40.9986 81.2974 41.0709 80.9339 41.288C80.3521 41.5774 79.8431 41.9391 79.4068 42.4456C76.8617 45.0501 74.3894 47.7271 71.8443 50.404C70.8263 51.4893 69.8809 51.7063 68.4993 51.1999C66.536 50.4764 65.2998 49.0294 64.9362 47.0759C64.5726 45.1225 64.4272 43.1691 64.4272 41.2156C64.4272 39.4069 65.2271 37.8152 66.536 36.5852C68.063 35.1383 69.8809 34.5595 71.9897 35.3553C73.2986 35.8617 74.4621 35.6447 75.5528 34.7042C76.3527 33.9807 76.4254 33.5466 75.6255 32.8231C75.0438 32.2443 74.3166 31.7378 73.5895 31.2314C73.0078 30.7973 72.2806 30.4355 71.6989 29.9291C70.3172 28.7715 69.0083 28.9162 67.554 29.7844C64.5726 31.5208 62.173 33.836 59.9188 36.3682C58.0281 38.394 56.4284 40.6368 54.6832 42.8073C53.5197 44.2543 53.0834 45.846 53.3743 47.6547C53.7379 50.6211 54.1015 53.6597 54.465 56.6261C54.6105 57.856 54.6832 59.1583 54.6832 60.4606C54.6832 61.3288 54.5378 62.0523 53.447 62.197C53.0834 62.2693 52.7926 62.6311 52.5017 62.9205C50.8292 64.5845 49.1567 66.3209 47.4115 67.9126C35.1952 78.765 23.2697 89.7622 10.3988 99.8911C8.21734 101.628 5.96312 103.219 3.70891 104.883C3.1999 105.245 2.61816 105.679 2.03643 105.824C1.52742 105.968 0.872968 105.824 0.436669 105.534C-0.145064 105.1 0.000369489 104.377 0.436669 103.798C0.872968 103.219 1.38198 102.713 1.891 102.279C4.21793 100.398 6.61757 98.5165 8.9445 96.6354C14.471 92.0774 19.9247 87.5193 25.4511 83.0337C34.2498 75.8711 42.9031 68.4191 52.1381 61.8352C52.2108 61.7629 52.3563 61.6905 52.5744 61.4011ZM49.084 35.2829C49.3022 35.9341 49.4476 36.5129 49.6658 37.164C50.2475 38.9004 50.8292 40.7092 51.5564 42.5903C51.8472 42.2285 52.0654 42.0115 52.0654 42.0115C51.2655 40.4198 50.4656 38.8281 49.6658 37.164C49.4476 36.5129 49.2295 35.9341 49.084 35.2829C48.8659 34.9212 48.7204 34.4871 48.575 34.053C48.5023 34.1254 48.3569 34.1977 48.2841 34.1977C48.575 34.5595 48.7932 34.9212 49.084 35.2829ZM79.7704 59.5924C101.367 63.7163 122.673 68.1297 143.906 73.4112C144.997 71.6748 146.306 70.3725 148.051 69.649C149.724 68.9255 151.542 68.5638 153.432 67.985C154.596 63.7163 155.832 59.3754 157.068 55.0344C152.996 51.634 151.105 47.3653 151.178 42.0838C131.835 36.6576 112.275 32.389 92.7139 28.4821C89.8053 33.1848 84.2061 36.3682 79.625 36.2958C79.3341 37.3811 78.9705 38.5387 78.6069 39.9133C79.4068 39.5516 79.9885 39.1898 80.5703 38.9728C81.8792 38.611 83.1153 38.611 84.1334 39.6239C85.0787 40.6368 85.2241 41.7944 84.7151 43.0244C84.1334 44.399 83.4062 45.7736 82.679 47.0036C81.5883 48.8123 80.4248 50.4764 79.2614 52.2851C80.643 54.5279 80.0612 56.9878 79.7704 59.5924ZM58.3917 16.9785C57.6646 17.4126 57.2283 17.5573 57.0101 17.8467C54.9741 19.8725 53.8106 22.3324 53.956 25.2987C54.1015 28.8438 54.2469 32.3166 54.3923 35.8617C54.3923 36.5852 54.465 37.3087 54.465 38.394C55.0468 37.7428 55.3376 37.4534 55.6285 37.0917C56.6465 35.9341 57.6646 34.7042 58.7553 33.5466C59.4098 32.8954 59.6279 32.2443 59.5552 31.3761C59.4098 28.1203 59.337 24.7923 59.1189 21.5365C58.9735 20.0895 58.6826 18.7149 58.3917 16.9785ZM176.847 25.7328C175.902 24.6476 174.956 23.707 174.011 22.6218C173.066 21.5365 172.12 20.4513 171.248 19.2937C170.521 18.3532 169.721 17.4126 169.43 16.3997C168.921 14.808 167.685 14.1569 166.303 13.7951C164.485 13.2887 163.831 13.8675 163.831 15.7486C163.831 16.038 163.831 16.3274 163.903 16.6168C164.412 20.0172 168.485 24.2858 171.829 25.0817C171.975 25.0817 172.048 25.154 172.193 25.154C173.72 25.2987 175.32 25.5158 176.847 25.7328ZM76.9344 37.6705C74.0258 39.0451 74.0258 39.0451 70.9717 38.611C69.4446 38.394 68.572 38.9004 68.1357 40.4198C67.4813 42.5903 67.8449 44.7607 68.572 46.8589C68.8629 47.7994 69.7355 48.2335 70.7535 48.3059C72.3533 46.4971 73.8803 44.7607 75.4801 42.952C75.6255 42.8073 75.6983 42.6626 75.771 42.5179C76.2073 40.9986 76.5709 39.4069 76.9344 37.6705ZM160.631 44.5437C160.704 44.616 160.704 44.7607 160.777 44.8331C163.104 43.0244 165.721 43.3861 168.339 43.6755C168.703 43.7478 168.994 43.8202 169.357 43.8925C170.666 44.0372 171.975 44.1819 173.357 44.3266C174.084 44.399 174.738 44.1096 175.102 43.4585C175.829 42.2285 175.465 40.2751 174.375 39.3345C171.902 37.0917 169.648 37.0193 167.103 39.1898C166.594 39.6239 166.158 40.058 165.649 40.4921C164.122 41.8668 162.667 43.4585 160.704 44.2543C160.704 44.2543 160.704 44.4713 160.631 44.5437ZM91.1142 28.1203C87.7692 27.5415 84.7878 27.0351 81.5883 26.4563C81.0793 29.1332 80.2067 31.6655 80.0612 34.4148C84.7151 33.9083 87.9146 31.4484 91.1142 28.1203ZM177.647 13.4334C177.865 14.1569 177.938 14.7357 178.156 15.2421C179.392 17.9914 180.628 20.7407 181.937 23.4176C182.737 25.0093 183.755 26.4563 184.773 27.9756C185.282 28.7715 186.082 29.4226 187.318 29.495C186.373 27.5415 185.646 25.7328 184.7 23.9964C183.101 21.1024 181.501 18.2808 179.828 15.3868C179.392 14.6633 178.883 13.8675 177.647 13.4334ZM158.013 52.6468C158.522 50.9105 159.031 49.4635 159.25 48.0165C159.468 46.6418 159.104 45.3395 157.941 44.4713C156.704 43.6031 155.323 43.0967 153.65 42.952C154.087 46.6418 155.614 49.5358 158.013 52.6468ZM171.611 12.4928C171.102 14.1569 171.757 15.3868 172.484 16.6168C174.156 19.366 176.265 21.8259 178.665 24.0688C178.956 24.3582 179.319 24.5752 179.683 24.8646C178.81 22.7665 177.792 20.813 176.702 18.7872C176.12 17.6297 175.393 16.4721 175.029 15.1698C174.447 13.5057 173.284 12.8546 171.611 12.4928ZM50.9019 22.5494C50.7565 22.5494 50.6838 22.5494 50.5383 22.5494C50.3929 23.2006 50.1748 23.8517 50.0293 24.5029C49.7385 26.0222 49.5203 27.5415 49.3022 29.1332C49.2295 29.7844 49.2295 30.5079 49.4476 31.159C50.3929 34.2701 51.4109 37.3087 52.429 40.3474C52.5017 40.4921 52.5744 40.5645 52.7198 40.7092C52.1381 34.6318 51.5564 28.5544 50.9019 22.5494ZM152.923 69.649C150.087 70.3725 147.76 71.313 146.161 73.8453C148.051 74.3517 149.796 74.7858 151.614 75.2923C152.123 73.4112 152.487 71.6748 152.923 69.649ZM78.0252 59.303C77.8798 57.7113 77.7343 56.3367 77.5162 54.6726C76.1346 55.9026 75.262 57.1325 74.3166 58.5072C75.6255 58.7242 76.7163 59.0136 78.0252 59.303Z" fill="black"/>
<path d="M124.2 48.3775C123.836 50.0416 123.618 51.778 122.964 53.3697C120.709 59.0129 113.583 60.4599 109.148 56.1913C107.839 54.889 107.33 53.225 107.33 51.4886C107.33 47.2923 109.075 43.8195 112.565 41.432C114.819 39.8403 117.219 39.7679 119.546 41.432C120.273 41.9384 120.928 42.4449 121.655 42.9513C123.473 44.3983 124.127 46.2071 124.2 48.3775ZM121.946 49.6798C122.091 47.5817 121.509 45.9177 119.764 44.6877C119.328 44.3983 118.892 44.1089 118.528 43.7472C117.146 42.5172 115.619 42.5896 114.238 43.5301C111.038 45.7006 109.511 48.8116 109.802 52.5738C110.02 56.4083 115.328 59.0129 118.528 56.553C120.855 54.7443 122.018 52.5738 121.946 49.6798Z" fill="black"/>
<path d="M147.288 11.1197C146.731 11.1693 146.175 11.1941 145.63 11.2686C144.821 11.3926 144.201 11.8145 143.821 12.5341C143.568 13.0179 143.34 13.5142 143.15 14.0353C142.644 15.3877 142.34 16.8021 141.961 18.1792C141.91 18.3653 141.897 18.5763 141.86 18.7624C141.847 18.8368 141.834 18.9237 141.796 18.9857C141.708 19.1718 141.543 19.2711 141.353 19.2462C141.164 19.2214 141.012 19.0725 140.999 18.8616C140.986 18.75 140.986 18.6259 141.012 18.5018C141.088 18.0304 141.062 17.5713 141.012 17.1122C140.91 16.2065 140.771 15.3008 140.48 14.4323C140.113 13.4026 139.556 12.4968 138.683 11.7896C138.24 11.4298 137.785 11.0825 137.329 10.7227C136.633 10.1767 135.836 9.81694 135.014 9.49436C134.887 9.44473 134.735 9.43232 134.583 9.3827C134.482 9.35788 134.368 9.33307 134.267 9.28344C134.052 9.18419 133.963 8.97327 134.014 8.76235C134.064 8.56384 134.254 8.43977 134.482 8.46458C134.647 8.47699 134.824 8.51421 134.988 8.56384C135.925 8.8492 136.886 8.78716 137.848 8.70031C138.202 8.6755 138.557 8.63828 138.898 8.56384C139.696 8.37773 140.316 7.94349 140.683 7.21148C140.974 6.64076 141.176 6.04522 141.315 5.41247C141.543 4.43232 141.86 3.46457 141.986 2.45961C142.049 1.95092 142.125 1.44224 142.189 0.921143C142.214 0.784666 142.226 0.648189 142.264 0.511713C142.34 0.375236 142.454 0.263573 142.619 0.251166C142.783 0.238759 142.935 0.325608 142.986 0.499306C143.049 0.68541 143.1 0.883922 143.112 1.08243C143.176 2.00055 143.239 2.91866 143.302 3.84919C143.365 4.69286 143.403 5.53654 143.492 6.3678C143.568 7.05019 143.808 7.69535 144.201 8.27848C144.555 8.81198 145.048 9.14696 145.63 9.3827C146.01 9.53158 146.377 9.69287 146.757 9.81694C146.959 9.89138 147.187 9.9162 147.402 9.96583C147.82 10.0651 148.25 10.1519 148.667 10.2636C148.857 10.3132 148.984 10.4497 148.997 10.6482C149.022 10.8343 148.908 11.0204 148.705 11.0949C148.566 11.1445 148.414 11.1817 148.263 11.1817C147.934 11.1941 147.592 11.1817 147.263 11.1817C147.288 11.1569 147.288 11.1321 147.288 11.1197Z" fill="black"/>
<path fill-rule="evenodd" clip-rule="evenodd" d="M95.4241 81.241C95.452 80.7102 95.5079 80.1795 95.5638 79.6487C95.5549 79.5249 95.5489 79.4038 95.543 79.2856C95.5302 79.0304 95.5181 78.7883 95.48 78.5593C95.452 78.3917 95.2844 78.1123 95.1727 78.1123C95.0051 78.1123 94.7257 78.252 94.6419 78.3917C94.4184 78.7548 94.195 79.1738 94.0832 79.5928C93.7201 80.9058 93.4128 82.2187 93.1334 83.5596C92.9658 84.3417 92.9379 85.1239 93.2172 85.8781C93.3849 86.2972 93.6363 86.6324 94.1391 86.6324C94.6419 86.6324 94.9213 86.2972 95.0609 85.8781C95.2006 85.4871 95.2565 85.068 95.2844 84.649C95.3123 84.0764 95.3333 83.5107 95.3542 82.945C95.3752 82.3793 95.3962 81.8137 95.4241 81.241ZM91.6529 99.9015C91.7088 100.153 91.7926 100.432 92.1836 100.488C92.2115 100.343 92.2405 100.197 92.2697 100.05L92.27 100.048C92.387 99.4587 92.5077 98.8509 92.5747 98.2254C92.8261 96.4097 93.0217 94.594 93.2172 92.7782C93.2452 92.5268 93.2172 92.2474 93.1614 91.996C92.9937 91.4373 92.5468 91.13 92.0719 91.2138C91.597 91.2976 91.3735 91.6608 91.3735 92.2754C91.4015 93.0017 91.4015 93.7559 91.4015 94.4822C91.4015 94.8742 91.3983 95.2663 91.3952 95.6573C91.389 96.4364 91.3829 97.2115 91.4015 97.974C91.4015 98.5094 91.4985 99.0449 91.5955 99.5803C91.6149 99.6873 91.6343 99.7944 91.6529 99.9015ZM103.589 89.8875C103.213 89.9808 102.831 90.0757 102.464 90.0962L102.196 90.1212C100.192 90.3083 98.212 90.4932 96.2064 90.6269C95.8711 90.6549 95.4801 90.571 95.1728 90.4314C94.7538 90.2638 94.7817 89.8168 95.1728 89.6213C95.3963 89.5095 95.6477 89.4537 95.8711 89.4537C98.5249 89.3699 101.179 89.3419 103.833 89.5654C103.888 89.5654 103.944 89.5933 104 89.6213V89.7889C103.865 89.819 103.727 89.8531 103.589 89.8875ZM90.1724 88.2152C90.4983 88.1873 90.8242 88.1593 91.1501 88.1407C91.1501 88.0849 91.1501 88.029 91.178 87.9452C91.0663 87.9312 90.9615 87.9103 90.8568 87.8893C90.752 87.8684 90.6473 87.8474 90.5355 87.8334C89.5437 87.7217 88.5589 87.6099 87.574 87.4982C86.5895 87.3865 85.6049 87.2747 84.6134 87.163C84.4458 87.149 84.2782 87.1281 84.1106 87.1071C83.9429 87.0862 83.7753 87.0652 83.6077 87.0513C83.3284 87.0513 83.1049 87.163 83.049 87.4424C82.9932 87.7496 83.1608 87.9731 83.4401 88.0569C83.6357 88.1128 83.8591 88.1687 84.0826 88.1687C84.4168 88.1823 84.7527 88.1976 85.0895 88.2129C86.1318 88.2605 87.1824 88.3083 88.2169 88.3083C88.8688 88.327 89.5206 88.2711 90.1724 88.2152Z" fill="black"/>
<path d="M106 12.4779C106.056 11.7498 106.336 11.0778 106.859 10.5365C107.251 10.1444 108.128 10.1631 108.613 10.6111C109.173 11.1152 109.453 11.7685 109.285 12.5339C109.211 12.8699 109.061 13.1872 108.893 13.4672C108.539 14.0832 107.96 14.3446 107.363 14.2326C106.691 14.1019 106.149 13.5605 106.037 12.8885C106.019 12.7579 106.019 12.6272 106 12.4779Z" fill="black"/>
<path d="M166 82.4778C166.056 81.7498 166.336 81.0778 166.859 80.5365C167.251 80.1444 168.128 80.1631 168.613 80.6111C169.173 81.1151 169.453 81.7685 169.285 82.5338C169.211 82.8698 169.061 83.1872 168.893 83.4672C168.539 84.0832 167.96 84.3446 167.363 84.2325C166.691 84.1019 166.149 83.5605 166.037 82.8885C166.019 82.7578 166.019 82.6272 166 82.4778Z" fill="black"/>
</g>
</g>
<defs>
<clipPath id="clip0_3_27">
<rect width="247" height="111" fill="white" transform="translate(0 0.25)"/>
</clipPath>
<clipPath id="clip1_3_27">
<rect width="247" height="111" fill="white" transform="translate(0 0.25)"/>
</clipPath>
</defs>
</svg>
