<svg width="158" height="112" viewBox="0 0 158 112" fill="none" xmlns="http://www.w3.org/2000/svg">
<g clip-path="url(#clip0_3_26)">
<g clip-path="url(#clip1_3_26)">
<mask id="mask0_3_26" style="mask-type:luminance" maskUnits="userSpaceOnUse" x="0" y="0" width="158" height="111">
<path d="M157.1 0.25H0V110.265H157.1V0.25Z" fill="white"/>
</mask>
<g mask="url(#mask0_3_26)">
<path d="M131.941 77.0217C131.682 79.0914 132.005 81.0317 132.135 82.972C132.329 86.0118 132.587 89.0516 132.782 92.0914C132.846 92.9969 132.717 93.9024 132.652 95.0019C121.075 93.967 109.692 95.3899 98.05 95.584C98.2441 96.1014 98.3734 96.4248 98.5674 96.6835C100.184 99.3999 101.284 102.245 101.866 105.35C101.995 105.996 102.06 106.708 101.995 107.355C101.931 108.325 101.219 108.584 100.508 108.001C99.9903 107.549 99.6023 107.031 99.2789 106.384C98.7615 105.35 98.2441 104.315 97.9207 103.28C96.3684 98.8825 93.7167 95.1959 90.6122 91.8974C89.254 90.4745 87.8311 89.1163 86.4082 87.7581C85.1147 86.4645 83.6918 85.365 82.0102 84.7829C80.7166 85.6884 79.4878 86.7232 78.0649 87.4993C74.7017 89.375 71.0151 90.2158 67.2639 90.4745C57.1096 91.1213 47.0847 90.1511 37.3832 87.1113C34.0847 86.0765 30.8508 84.7829 27.617 83.6187C26.9702 83.36 26.2588 83.166 25.5473 82.972C24.0597 82.6486 23.2189 81.7431 22.8956 80.2556C22.4428 78.1859 22.6369 76.1162 23.413 74.1759C24.1891 72.1709 25.1593 70.2306 26.1941 68.2903C27.0996 66.6087 28.1344 64.9918 29.2339 63.4396C33.3732 57.554 36.413 51.151 38.418 44.2306C38.8707 42.6136 39.3882 40.932 39.9702 39.3798C40.4877 37.8922 41.0698 36.34 41.7812 34.9171C43.8509 30.9071 46.5026 27.3499 50.9006 25.3449C50.9006 24.7628 50.9006 24.2454 50.9006 23.6633C50.7713 17.4544 50.7066 11.2454 50.5126 5.03639C50.4479 3.54882 50.9653 2.31996 51.8061 1.15578C52.3235 0.444334 52.9056 -0.00840387 53.8758 0.250303C54.5225 0.444334 55.234 0.31498 55.8807 0.379657C65.6469 0.832394 75.4131 1.02643 85.1793 0.961748C95.7863 0.897071 106.393 1.02643 117 0.961748C125.99 0.897071 134.981 0.703041 143.971 0.638364C146.364 0.638364 148.757 0.767718 151.085 1.0911C154.06 1.47916 156.13 3.09609 156.971 6.07122C157.1 6.45928 157.165 6.84734 157.165 7.30008C157.1 12.0862 156.971 16.8076 156.971 21.5937C156.971 23.6633 157.1 25.733 157.035 27.8026C156.906 32.9121 156.841 38.0216 156.518 43.1311C156.195 47.7878 156.13 52.4445 156.259 57.1012C156.389 60.1411 156.453 63.1809 156.518 66.2854C156.583 67.4495 156.647 68.549 156.777 69.7132C157.035 72.1709 156.906 74.564 156.324 76.957C156.13 77.7978 155.677 78.1859 154.642 78.1859C153.09 78.1859 151.538 78.1212 149.986 78.0565C144.035 77.6685 138.085 77.3451 131.941 77.0217ZM78.647 63.6336C79.0997 63.6336 79.6818 63.6983 80.2639 63.6983C95.1396 63.763 110.015 63.8276 124.956 63.763C131.294 63.6983 137.632 63.3102 144.035 63.0515C145.652 62.9868 147.204 62.8575 148.821 62.6635C150.244 62.4694 150.309 62.3401 150.05 60.8525C149.986 60.3998 149.856 59.947 149.792 59.4943C149.339 52.8973 149.403 46.2355 149.986 39.6385C150.568 32.5887 150.568 25.6036 150.309 18.5539C150.18 15.126 150.115 11.7628 149.986 8.33491C149.986 8.01152 149.921 7.75282 149.856 7.42943C147.787 7.30008 145.782 7.10605 143.777 7.10605C135.951 6.9767 128.189 6.91202 120.364 6.84734C114.413 6.78266 108.463 6.78266 102.513 6.84734C97.1446 6.91202 91.7764 7.30008 86.4082 7.30008C77.2241 7.36476 67.9753 7.2354 58.7912 7.17073C58.2091 7.17073 57.6917 7.17073 57.1743 7.17073C57.1743 13.121 57.1743 18.8772 57.1743 24.6982C61.2489 25.3449 63.7713 27.8673 65.4529 31.2305C66.0997 32.4594 66.6171 33.8176 66.9405 35.1111C67.5872 37.8922 67.9753 40.6733 68.4927 43.5191C68.7514 44.8773 69.0101 46.3002 69.5276 47.5291C70.8858 50.6982 73.2141 53.2206 75.4131 55.8724C75.6072 55.6784 75.8012 55.6137 75.8659 55.549C78.3236 52.9619 80.652 50.3102 83.1744 47.7231C84.1445 46.753 85.3087 45.9122 86.4082 45.0714C86.7963 44.8127 87.3784 44.6833 87.8311 44.5539C87.6371 45.3301 87.249 45.8475 86.8609 46.3002C85.1147 48.3052 83.3037 50.1808 81.6221 52.1858C80.2639 53.8027 78.9057 55.4843 77.6122 57.1012C77.2241 57.554 77.0301 58.0067 77.2888 58.6535C77.7415 60.2057 78.1296 61.8227 78.647 63.6336ZM154.384 76.1162C154.254 72.753 154.06 69.5839 154.06 66.4794C154.06 53.4147 154.125 40.2853 154.254 27.2206C154.319 21.1409 154.448 15.126 154.578 9.04635C154.578 8.27023 154.578 7.49411 154.772 6.71799C155.16 5.2951 154.513 4.32495 153.413 3.74285C152.249 3.16076 150.956 2.64335 149.662 2.44932C147.592 2.19061 145.523 2.12593 143.453 2.12593C134.916 2.25529 126.378 2.57867 117.841 2.57867C105.747 2.64335 93.652 2.64335 81.5574 2.57867C73.8609 2.57867 66.1644 2.31996 58.4678 2.19061C56.7215 2.12593 54.9753 2.19061 52.9703 2.19061C52.8409 3.03141 52.5822 3.87221 52.5822 4.77768C52.7116 11.0513 52.9056 17.2603 53.0996 23.534C53.0996 23.8574 53.229 24.2454 53.2937 24.6335C53.9404 24.5688 54.4579 24.5041 55.0399 24.4394C55.1046 24.0514 55.1046 23.728 55.1693 23.4046C55.234 20.8822 55.2987 18.3598 55.2987 15.7728C55.2987 13.4444 55.1693 11.116 55.0399 8.78765C54.9753 7.75282 55.234 6.84734 55.8161 6.00654C56.2041 5.48913 56.6569 5.2951 57.239 5.2951C60.6668 5.42445 64.1594 5.61848 67.5872 5.61848C78.647 5.48913 89.7067 5.2951 100.766 5.16574C106.846 5.10107 112.99 5.03639 119.07 5.03639C127.995 5.03639 136.985 5.03639 145.911 5.03639C147.398 5.03639 148.886 5.23042 150.374 5.48913C151.796 5.68316 151.926 5.94187 151.926 7.36476C151.926 9.30506 151.991 11.1807 152.055 13.121C152.185 21.8524 152.249 30.5837 151.926 39.3151C151.732 43.1957 151.926 47.0763 151.861 50.957C151.796 54.5789 152.637 58.2008 151.732 61.758C151.667 61.952 151.796 62.146 151.796 62.3401C151.926 63.2455 151.473 63.763 150.697 63.957C149.986 64.151 149.209 64.3451 148.433 64.4097C145.588 64.6038 142.742 64.7331 139.896 64.8625C133.946 65.1212 127.995 65.4446 122.045 65.4446C107.946 65.5092 93.7814 65.3152 79.6818 65.2505C79.1644 65.2505 78.647 65.3152 78.1943 65.3152C77.4828 67.5142 77.6768 69.4545 79.2291 71.2008C80.0052 72.0416 80.5873 73.0117 81.1047 74.0466C81.4928 74.758 82.0102 75.0167 82.851 74.9521C84.5973 74.8227 86.3435 74.8874 88.0898 74.758C102.383 73.9172 116.742 74.1759 131.035 74.6933C136.339 74.8874 141.642 75.3401 147.01 75.6635C149.533 75.9222 151.926 75.9869 154.384 76.1162ZM130.647 93.7083C130.841 88.0168 129.612 82.5192 129.483 76.8277C117.194 76.2456 105.1 75.8575 92.8759 76.569C93.0699 80.5789 93.264 84.3302 93.3286 88.0814C93.3933 89.6337 93.7814 90.9272 94.9455 91.8974C95.2043 92.0914 95.463 92.4148 95.657 92.7382C96.1097 93.5143 96.7565 93.6437 97.5973 93.6437C107.105 93.6437 116.612 93.6437 126.12 93.7083C127.607 93.7083 129.095 93.7083 130.647 93.7083ZM90.7416 76.569C87.9604 76.6983 85.3734 76.8277 82.851 76.957C82.9803 78.8973 83.045 80.6436 83.1744 82.5839C86.4082 83.2307 88.5425 85.8178 91.259 88.1461C91.0649 84.1362 90.8709 80.4496 90.7416 76.569Z" fill="black"/>
<path d="M19.3385 83.3592C18.239 84.5881 17.2041 85.8816 16.1046 87.0458C14.423 88.7921 12.6768 90.4737 11.0598 92.2846C7.826 95.8418 5.43296 99.9165 4.13942 104.638C3.81604 105.802 3.3633 106.902 2.97524 108.001C2.84589 108.324 2.78121 108.777 2.5225 108.971C2.13444 109.295 1.61703 109.618 1.22896 109.553C0.840903 109.489 0.323489 109.036 0.194135 108.583C0.000104547 108.001 0.000104554 107.225 0.129458 106.578C0.90558 100.757 3.23395 95.5831 7.30859 91.4438C9.83098 88.8567 12.6768 86.6577 15.4579 84.3294C16.1693 83.7473 17.1395 83.3592 18.0449 82.9712C18.3683 82.8418 18.7564 82.9065 19.1444 82.8418C19.2091 83.0358 19.2738 83.2299 19.3385 83.3592Z" fill="black"/>
<path d="M15.7166 109.296C15.1345 108.455 15.1345 107.42 15.0698 106.515C14.8758 102.634 15.1345 98.8183 15.7166 94.9377C15.8459 94.1616 16.1046 93.3208 16.428 92.6094C16.5574 92.3507 17.0101 92.2213 17.3335 92.0273C17.3982 92.3507 17.6569 92.674 17.5922 92.9327C17.0101 98.3656 16.3633 103.734 15.7166 109.296Z" fill="black"/>
<path d="M82.3983 110.266C82.269 109.943 82.2043 109.619 82.0749 109.361C81.2341 106.774 80.5227 104.122 79.5525 101.535C79.0998 100.241 78.3883 99.0119 77.7416 97.7831C77.4829 97.3303 77.0948 96.8776 77.6122 96.4248C78.1943 95.9721 78.647 96.4248 79.0351 96.8776C79.2938 97.201 79.4878 97.589 79.6819 97.9124C81.0401 101.147 82.0102 104.51 82.657 107.938C82.7864 108.649 82.657 109.425 82.657 110.137C82.5923 110.202 82.463 110.202 82.3983 110.266Z" fill="black"/>
<path d="M119.717 39.4452C121.916 40.674 123.791 41.8382 125.667 42.8084C128.189 44.0372 130.13 45.7835 131.488 48.3059C133.105 51.3457 134.657 54.3855 135.498 57.6841C135.692 58.3955 135.757 59.0423 135.692 59.8184C133.105 55.0323 130.841 50.0522 127.478 45.5895C126.896 46.1069 126.378 46.6243 125.796 47.077C122.757 49.5994 119.07 50.6343 115.254 51.087C110.274 51.6691 105.423 51.0223 100.702 49.6641C97.9207 48.888 95.2042 47.9825 92.4231 47.0124C91.3883 46.689 90.4182 46.1716 89.5127 45.5895C88.6072 45.0074 88.7366 44.3606 89.7067 43.9079C90.8062 43.3905 91.9704 42.9377 93.1346 42.4203C93.9754 42.0323 94.8809 41.7089 95.7217 41.3208C96.4331 40.9974 96.9505 40.5447 96.8858 39.5745C94.4928 38.2163 93.7814 35.8233 93.1993 33.3009C92.4231 29.5496 91.647 25.7984 90.8062 21.9178C90.6122 21.9178 90.4182 21.9824 90.1594 21.9178C89.3186 21.7884 89.1246 21.4003 89.3833 20.6242C89.5774 20.1068 89.7714 19.5894 89.7714 19.072C89.642 14.9973 91.9704 11.5695 95.851 10.0819C97.856 9.30575 99.9903 9.1764 102.125 9.24108C104.259 9.30575 106.458 9.56446 108.592 9.82317C110.662 10.0819 112.214 11.1814 112.99 13.057C114.219 16.0968 116.418 18.4899 118.423 20.9476C121.528 24.6342 122.757 28.9029 122.692 33.5596C122.692 34.5944 122.433 35.6293 122.174 36.5994C121.98 37.8283 121.528 38.9924 119.717 39.4452ZM92.4878 24.3755C93.2639 26.7685 93.9754 29.2262 94.8162 31.6193C95.3336 33.1069 95.851 34.5297 96.4978 35.9526C96.9505 37.0521 97.856 37.5696 99.0849 37.5049C100.766 37.4402 102.319 37.0521 103.871 36.3407C104.194 36.2113 104.518 35.9526 104.841 35.9526C105.164 35.9526 105.617 36.082 105.747 36.276C105.941 36.5347 105.941 36.9875 105.747 37.2462C105.488 37.6342 105.164 38.0223 104.776 38.1516C103.612 38.6691 102.448 39.1865 101.219 39.5745C100.378 39.8332 99.5376 39.8979 98.6968 40.0273C98.1794 41.9676 97.7266 42.6143 95.9804 43.3905C95.1396 43.7785 94.2341 44.0372 93.3933 44.3606C93.0699 44.49 92.8112 44.6193 92.2938 44.878C94.8162 45.7188 97.0152 46.495 99.2789 47.2711C102.383 48.3706 105.617 49.2114 108.916 49.5994C112.279 49.9875 115.642 49.8582 118.941 49.0174C121.398 48.3706 123.468 46.9477 125.408 45.0721C124.632 44.684 124.05 44.4253 123.403 44.1666C121.075 43.1964 119.005 41.9676 117.065 40.286C114.931 38.475 113.637 36.276 113.508 33.3656C113.378 29.7437 112.214 26.3158 110.403 23.2113C108.657 20.2362 106.005 18.2959 102.383 18.6839C99.3436 19.0073 96.3038 19.6541 93.1993 20.2362C92.6819 20.3008 92.2291 20.5595 91.7764 20.8183C91.5823 20.9476 91.5823 21.3357 91.453 21.7237" fill="black"/>
</g>
</g>
</g>
<defs>
<clipPath id="clip0_3_26">
<rect width="158" height="111" fill="white" transform="translate(0 0.25)"/>
</clipPath>
<clipPath id="clip1_3_26">
<rect width="158" height="111" fill="white" transform="translate(0 0.25)"/>
</clipPath>
</defs>
</svg>
